<svg version="1.1" xmlns="http://www.w3.org/2000/svg" x="0" y="0" viewBox="0 0 512 512" xml:space="preserve"><path d="M87.501 46.5c-22.607 0-41 18.393-41 41s18.393 41 41 41c22.608 0 41-18.393 41-41s-18.393-41-41-41zm0 61.999c-11.58 0-21-9.42-21-21s9.42-21 21-21 21 9.42 21 21-9.42 21-21 21zm77.5-31h-14c-5.523 0-10 4.477-10 10s4.477 10 10 10h14c5.523 0 10-4.477 10-10s-4.477-10-10-10zm-140.999 0h-14c-5.523 0-10 4.477-10 10s4.477 10 10 10h14c5.523 0 10-4.477 10-10s-4.477-10-10-10zm63.499 63.5c-5.523 0-10 4.477-10 10v14c0 5.523 4.477 10 10 10s10-4.477 10-10v-14c0-5.523-4.477-10-10-10zM87.501 0c-5.523 0-10 4.477-10 10v14c0 5.523 4.477 10 10 10s10-4.477 10-10V10c0-5.523-4.477-10-10-10zm61.873 135.228l-9.899-9.899c-3.906-3.905-10.238-3.906-14.143 0-3.905 3.906-3.905 10.238 0 14.143l9.899 9.899a9.966 9.966 0 007.071 2.929 9.97 9.97 0 007.072-2.929c3.905-3.906 3.905-10.238 0-14.143zM49.673 35.527l-9.899-9.899c-3.906-3.905-10.238-3.906-14.143 0-3.905 3.906-3.905 10.238 0 14.143l9.899 9.899a9.966 9.966 0 007.071 2.929 9.972 9.972 0 007.072-2.929c3.905-3.906 3.905-10.238 0-14.143zm-.001 89.802c-3.906-3.905-10.238-3.905-14.143 0l-9.899 9.899c-3.905 3.906-3.905 10.238 0 14.143 1.952 1.953 4.512 2.929 7.071 2.929s5.119-.976 7.072-2.929l9.899-9.899c3.905-3.906 3.906-10.238 0-14.143zm99.702-99.701c-3.906-3.905-10.238-3.905-14.143 0l-9.899 9.899c-3.905 3.906-3.905 10.238 0 14.143 1.952 1.953 4.512 2.929 7.071 2.929s5.118-.976 7.072-2.929l9.899-9.899c3.905-3.906 3.906-10.238 0-14.143zM82.231 454.871a10.096 10.096 0 00-7.08-2.931c-2.63 0-5.2 1.071-7.07 2.931-1.86 1.859-2.93 4.439-2.93 7.069s1.07 5.21 2.93 7.07a10.09 10.09 0 007.07 2.93c2.64 0 5.21-1.069 7.08-2.93 1.86-1.87 2.93-4.44 2.93-7.07s-1.07-5.21-2.93-7.069zm63.83 40.059c-1.86-1.861-4.44-2.93-7.07-2.93s-5.21 1.07-7.07 2.93-2.93 4.44-2.93 7.07 1.07 5.21 2.93 7.069a10.055 10.055 0 007.07 2.931c2.63 0 5.21-1.07 7.07-2.931a10.072 10.072 0 002.93-7.069c0-2.63-1.07-5.21-2.93-7.07zm87.859-9.67a10.071 10.071 0 00-7.07-2.93c-2.64 0-5.21 1.07-7.07 2.93-1.87 1.86-2.93 4.44-2.93 7.07s1.06 5.21 2.93 7.069a10.017 10.017 0 007.07 2.931c2.63 0 5.21-1.06 7.07-2.931 1.86-1.859 2.93-4.439 2.93-7.069s-1.07-5.209-2.93-7.07zm175.709 0a10.054 10.054 0 00-7.07-2.93c-2.63 0-5.21 1.07-7.07 2.93s-2.93 4.44-2.93 7.07 1.07 5.21 2.93 7.069a10.052 10.052 0 007.07 2.931c2.64 0 5.21-1.06 7.07-2.931a10.011 10.011 0 002.93-7.069c0-2.63-1.06-5.21-2.93-7.07zm-87.849 9.67a10.095 10.095 0 00-7.08-2.93c-2.63 0-5.2 1.07-7.07 2.93a10.066 10.066 0 00-2.92 7.07c0 2.63 1.06 5.21 2.92 7.069A10.072 10.072 0 00314.7 512c2.64 0 5.21-1.07 7.08-2.931a10.072 10.072 0 002.93-7.069 10.084 10.084 0 00-2.93-7.07zm172.278 0a10.071 10.071 0 00-7.07-2.93c-2.63 0-5.21 1.07-7.07 2.93s-2.93 4.44-2.93 7.07 1.07 5.21 2.93 7.069a10.072 10.072 0 007.07 2.931c2.63 0 5.21-1.07 7.07-2.931a10.072 10.072 0 002.93-7.069c0-2.63-1.07-5.21-2.93-7.07zm-72.632-353.931c-5.523 0-10 4.477-10 10v310.94c0 5.522 4.477 10 10 10s10-4.478 10-10v-310.94c0-5.523-4.477-10-10-10zm7.073-43.296a10.066 10.066 0 00-7.07-2.92c-2.64 0-5.22 1.06-7.07 2.92a10.056 10.056 0 00-2.93 7.08c0 2.63 1.06 5.21 2.93 7.07 1.86 1.86 4.43 2.93 7.07 2.93 2.63 0 5.21-1.07 7.07-2.93s2.93-4.44 2.93-7.07a10.1 10.1 0 00-2.93-7.08z" stroke="#000" stroke-width="10"/><path d="M501.998 451.938h-20.94c20.521-57.232 30.923-117.697 30.923-179.963 0-91.401-22.958-180.551-66.391-257.811C440.605 5.297 431.572.003 421.425.003c-10.147 0-19.18 5.293-24.164 14.161-26.054 46.344-44.73 96.969-55.512 149.789-24.107-48.265-55.059-91.874-92.266-129.944-7.11-7.274-17.206-10.05-27.006-7.424s-17.156 10.078-19.676 19.932c-11.346 44.372-16.573 90.396-15.726 136.697-.013.241-.039.48-.034.724.567 28.968 3.557 58.089 8.886 86.877l.119.638c.463 2.486.944 4.969 1.442 7.45l.179.898a549.864 549.864 0 001.656 7.89l.03.142a553.092 553.092 0 001.76 7.808c.008.036.022.07.031.106a545.464 545.464 0 004.255 16.978c13.262 49.493 33.165 96.231 59.217 139.211H128.001c-5.523 0-10 4.478-10 10s4.477 10 10 10h154.705l.016.001.014-.001h219.262c5.523 0 10-4.478 10-10s-4.477-9.998-10-9.998zM222.179 51.473c1.016-3.974 4.168-5.218 5.476-5.568 1.307-.351 4.658-.85 7.526 2.084 29.739 30.428 55.306 64.562 76.412 101.89l-38.302 66.341-66.297-38.277c-.371-42.855 4.684-85.406 15.185-126.47zm-2.906 233.777a521.108 521.108 0 01-1.343-6.265c-.236-1.13-.483-2.258-.711-3.388a519.36 519.36 0 01-1.661-8.618c-.288-1.559-.557-3.12-.83-4.68a506.696 506.696 0 01-1.621-9.767c-.197-1.265-.382-2.532-.57-3.798a519.757 519.757 0 01-2.604-20.326c-.07-.645-.141-1.29-.209-1.936-.247-2.376-.48-4.752-.693-7.129l-.078-.905a514.54 514.54 0 01-1.208-16.967l60.62 34.999 10.102 37.702c1.197 4.468 5.237 7.415 9.653 7.415.856 0 1.728-.111 2.595-.344 5.334-1.43 8.5-6.913 7.071-12.247l-10.102-37.703 35.018-60.651a516.736 516.736 0 0113.152 28.031 542.036 542.036 0 00-4.605 93.629 10.026 10.026 0 00-1.184 1.645l-24.552 42.525-85.866-49.575c-.125-.549-.252-1.098-.374-1.647zm68.909 166.689c-27.091-42.345-47.817-88.708-61.683-137.992l77.673 44.845a9.995 9.995 0 0013.66-3.66l15.858-27.467c4.356 42.679 13.758 84.265 28.103 124.274h-73.611zm171.582-.001h-76.679c-21.379-57.046-32.215-117.556-32.215-179.963 0-87.976 22.07-173.737 63.825-248.01 2.01-3.576 5.376-3.961 6.73-3.961s4.72.386 6.73 3.961C469.91 98.238 491.98 184 491.98 271.975c-.001 62.407-10.837 122.918-32.216 179.963z" stroke="#000" stroke-width="10"/></svg>