<svg height="491pt" viewBox="0 -6 491.2 491" width="491pt" xmlns="http://www.w3.org/2000/svg"><path d="M479.898 125.727l11.301-11.301-64-64c-3.097-3.102-8.199-3.102-11.3 0l-34.297 34.3-42.301-42.3c-3.102-3.102-8.2-3.102-11.301 0l-120 120 11.3 11.3L333.603 59.325l66.296 66.301 11.301-11.3-18.3-18.302 28.703-28.699zM125.602 19.324l66.296 66.301 11.301-11.3-18.3-18.302 28.703-28.699 50.296 50.301 11.301-11.3-56-56c-3.097-3.098-8.199-3.098-11.3 0l-34.297 34.402L131.3 2.426c-3.102-3.102-8.2-3.102-11.301 0l-120 120 11.3 11.3zm330.296 159l-50.296 50.403-34.301-34.301c-3.102-3.102-8.2-3.102-11.301 0l-37.7 37.597H197.603c-8.102-.199-16.204 1.602-23.403 5.301l-42.898-42.898c-3.102-3.102-8.2-3.102-11.301 0l-33.898 33.898L43.7 178.926c-2.898-3.403-7.898-3.7-11.3-.903-.2.102-.297.301-.399.403l-32 32 11.3 11.3 25.9-25.902 42.402 49.403c1.5 1.699 3.5 2.699 5.796 2.796 2.204.102 4.403-.796 6-2.296l34.301-34.301 36.7 36.699c-3.098 4.8-4.7 10.3-4.7 16v112h16V264.023c0-10 9-16 24-16h92.403c-2.903 4.801-4.403 10.403-4.403 16v120h16v-120c0-8.796 7.2-16 16-16h8l.602-.097c1.898-.2 3.597-1 5-2.2l34.3-34.3 34.297 34.3c3.102 3.098 8.204 3.098 11.301 0l50.301-50.3 18.3 18.3 11.302-11.3-24-24c-3-3.2-8-3.2-11.204-.102zm0 0"/><path d="M221.602 296.023h16v24h-16zm24 72h16v32h-16zm-56-64h16v56h-16zm55.5-15.5h16v16h-16zm.5 47.5h16v16h-16zm-40 32h16v16h-16zm16.5 26.5h16v40h-16zm-.5-130.5h16v16h-16zM193.8 462.426l14.4 7.097c5.698-11.796 19.902-16.796 31.698-11.097 4.602 2.199 8.301 5.8 10.704 10.3 2.097 3.899 7 5.297 10.898 3.2 1.3-.7 2.5-1.801 3.2-3.2 4.1-7.703 12.198-12.601 21-12.601h16v-24h-16v8c-10.5 0-20.598 4.2-28 11.602-15.5-15.5-40.7-15.5-56.098 0a35.417 35.417 0 00-7.801 10.699zm126.9 8.301c3-4.204 7.8-6.704 12.902-6.704 8.796 0 16 7.204 16 16h16c0-8.796 7.199-16 16-16v-16c-9.204 0-18 4.102-24 11.102-11.403-13.3-31.403-14.8-44.704-3.398-1.898 1.699-3.597 3.5-5.097 5.597zm-35.098-54.704h8v-16h-8c-17.704 0-32 14.301-32 32h16c0-8.796 7.199-16 16-16zm24-16h16v16h-16zm88 48h16v16h-16zm-256-56v16h16c17.699 0 32 14.301 32 32h16c0-26.5-21.5-48-48-48zm-32 0h16v16h-16zm0 0"/><path d="M77.602 448.023c17.699 0 32 14.301 32 32h16c0-8.796 7.199-16 16-16 5.398 0 10.296 2.704 13.296 7.204l13.301-8.801c-1.597-2.403-3.398-4.5-5.597-6.403h11v-32h-16v28.301c-12.204-7.199-27.801-5.3-38 4.5-8.403-15.3-24.5-24.8-42-24.898zm-32-16h16v16h-16zm0 0"/></svg>