<svg version="1.1" id="Capa_1" xmlns="http://www.w3.org/2000/svg" x="0" y="0" viewBox="0 0 512.001 512.001" stroke="#fff" xml:space="preserve"><rect fill="none"/><circle cx="269.742" cy="85.258" r="11.824"/><path d="M328.568 92.707h-6.265c9.734-38.461-14.012-78.073-52.826-86.899-44.209-10.074-91.803-6.435-134.959 11.931-13.674-6.215-65.462-26.757-112.362-5.602-20.28 9.15-27.848 34.127-16.15 53.051l25.768 41.69c-38.27 62.928-41.06 139.027-13.265 202.301 11.854 27.002 28.765 51.034 50.248 71.409a7.555 7.555 0 0010.394-10.968c-41.294-39.159-64.036-92.056-64.036-148.951v-.151C15.208 89.116 137.683-8.678 266.123 20.532c33.245 7.579 52.509 44.382 38.736 76.767a7.577 7.577 0 002.279 8.9c3.316 2.644 6.31 1.226 21.43 1.614 8.273 0 14.94 6.932 14.526 15.284-.389 7.809-7.127 13.803-14.945 13.803-13.483 1.461-61.512-7.67-112.202 26.821-13.001-12.333-30.502-21.417-43.006-24.243a7.552 7.552 0 00-9.014 5.731 7.552 7.552 0 005.731 9.014c.302.06 17.505 4.099 34.002 18.764h.01c14.071 12.534 23.901 29.381 27.929 50.631.591 2.958-4.598 5.91-7.594 7.624-20.23 11.527-69.81.069-97.052-16.981a7.544 7.544 0 00-10.404 2.397 7.55 7.55 0 002.407 10.414c10.646 6.657 23.487 12.288 36.822 16.407-15.967 49.218-6.301 109.679 31.766 155.246a166.613 166.613 0 005.823 6.618 5.894 5.894 0 008.549.108c12.6-12.846 30.541-23.274 48.546-23.274 10.062 0 20.063 3.142 29.792 9.347-9.582 26.059-31.756 40.489-64.389 34.063l-.01-.01c-12.389-1.878-9.689 9.573-9.689 15.974 0 20.154-5.368 53.703-40.791 55.002-9.221-20.661-7.772-42.94 8.43-60.451h.01c1.85-2.005 3.473-3.572 4.898-4.836 3.578-3.175 2.098-9.09-2.573-10.113-26.065-5.708-51.413-16.635-74.498-33.042-3.404-2.417-8.118-1.612-10.535 1.783a7.552 7.552 0 001.783 10.535c19.922 14.151 41.748 24.746 64.741 31.555-10.364 13.97-13.013 28.171-13.013 39.028 0 20.597 9.216 36.299 9.598 36.963a7.546 7.546 0 006.245 3.676c41.226 1.332 60.74-28.704 60.813-69.948 27.513 3.01 48.681-6.823 62.646-25.623 9.437-12.68 12.429-25.401 12.549-25.935a7.554 7.554 0 00-2.871-7.765c-31.025-22.933-65.308-19.374-95.168 5.811-31.995-38.884-43.773-93.487-27.919-140.823 18.693 4.104 44.44 6.425 60.984-3.001 9.578-5.49 17.047-12.305 14.947-23.568-3.696-19.469-11.391-34.375-20.103-45.615 46.294-30.526 88.255-21.682 102.228-23.175 16.357 0 29.651-13.305 29.651-29.651.001-16.346-13.293-29.651-29.65-29.651zM64.789 64.929a224.728 224.728 0 00-23.834 28.069L18.857 57.245c-6.925-11.204-2.427-25.949 9.512-31.335 31.9-14.392 67.828-6.05 87.594.781-18.555 10.062-35.787 22.872-51.174 38.238zm315.819 343.536l-26.712-52.192c-5.449-10.635-20.658-10.538-25.995.003-29.507 58.437-30.999 58.109-32.605 68.588a7.553 7.553 0 006.321 8.611c4.12.636 7.979-2.198 8.611-6.321.948-6.176 3.404-9.837 4.299-11.592l26.372-51.523c28.184 55.052 26.371 51.554 26.616 51.963 12.268 20.487-2.646 46.858-26.616 46.858-10.357 0-19.279-4.831-24.974-12.684a7.552 7.552 0 00-10.55-1.681 7.553 7.553 0 00-1.681 10.549c7.314 10.088 18.076 16.63 30.291 18.421 38.782 5.747 66.075-36.102 46.623-69zm90.797-223.071c-25.69-23.073-58.834-7.595-74.557 22.152l-62.63 118.512c-4.031 7.623 5.89 14.819 11.938 8.95 44.649-43.313 78.808-62.542 95.194-70.148 3.784-1.756 5.428-6.247 3.671-10.032s-6.25-5.429-10.031-3.671c-13.067 6.065-36.799 19.085-67.637 44.534l42.796-80.981c11.937-20.916 32.948-34.435 51.161-18.076 13.445 12.075 13.414 30.846-.832 42.468a7.555 7.555 0 00-1.079 10.628 7.553 7.553 0 0010.628 1.079c21.537-17.569 21.645-47.211 1.378-65.415z" stroke-width="10"/><path d="M324.857 331.86l-13.345-23.704c-8.587-17.464-33.208-19.34-44.158-2.805-10.916 16.482.294 38.473 19.816 39.56 28.244 3.148 27.13 3.106 28.277 3.106 8.277 0 13.476-9.022 9.41-16.157zm-36.73-2.027c-3.761-.171-7.04-2.306-8.771-5.714-3.816-7.51 2.377-16.155 10.754-14.963 3.503.502 6.38 2.603 7.893 5.766.204.427-.29-.494 9.598 17.081-20.04-2.244-18.984-2.147-19.474-2.17zm222.986-42.28c-5.273-20.323-30.598-27.049-45.289-12.401l-22.103 19.659c-2.964 2.636-4.284 6.532-3.529 10.423.812 4.187 4.034 7.752 8.502 8.744 33.121 7.312 32.145 7.453 36.215 7.453 17.304-.004 30.735-16.387 26.204-33.878zm-29.548 18.287c-.383-.112-2.443-.556-21.987-4.916 15.29-13.606 16.536-14.694 16.822-14.984 6.862-6.972 19.304-3.175 20.422 7.227.876 8.06-6.899 15.128-15.257 12.673zm-43.389 22.753l-58.847-.88c-8.054 0-14.607 6.561-14.607 14.624 0 7.95 3.194 7.683 36.213 56.405 17.053 27.905 57.179 29.441 76.323 3.387 23.306-31.634-.753-75.286-39.082-73.536zm26.913 64.582c-12.813 17.439-39.948 16.438-51.357-2.465-.249-.412 1.869 2.657-33.415-47.874 79.353 1.182 51.755.816 60.041.816 24.861 0 40.192 28.543 24.731 49.523z" stroke-width="10"/></svg>