<svg width="150" height="48" fill="none" xmlns="http://www.w3.org/2000/svg"><path d="M6.128 38.912c-1.075-.381-1.959-.815-2.652-1.3-.659-.485-1.213-1.283-1.664-2.392-.555-1.56-.832-3.397-.832-5.512 0-2.045.121-3.779.364-5.2a21.74 21.74 0 011.248-4.42l.468-1.092c.555-1.421.953-2.357 1.196-2.808.59-1.352 1.63-3.103 3.12-5.252 1.317-2.01 2.357-3.467 3.12-4.368.763-.936 1.49-1.681 2.184-2.236.728-.555 2.045-1.49 3.952-2.808.797-.59 1.716-.884 2.756-.884.867 0 1.664.225 2.392.676a3.97 3.97 0 011.716 1.82c.381.659.572 1.543.572 2.652 0 1.56-.347 3.19-1.04 4.888-.693 1.699-1.577 3.033-2.652 4.004-.347.312-.676.468-.988.468-.381 0-.884-.277-1.508-.832-.312-.59-.485-.936-.52-1.04-.035-.104.035-.173.208-.208.312-.381.763-1.11 1.352-2.184.624-1.11 1.04-1.976 1.248-2.6.07-.208.139-.555.208-1.04.277-1.213.416-2.028.416-2.444 0-.416-.121-.745-.364-.988a.562.562 0 00-.416-.156c-.277 0-.763.173-1.456.52-.832.347-1.89 1.127-3.172 2.34a29.009 29.009 0 00-3.484 3.952c-1.595 2.08-2.825 3.796-3.692 5.148a19.11 19.11 0 00-1.924 4.108l-.572 1.352c.035.139-.017.485-.156 1.04s-.295 1.005-.468 1.352a25.416 25.416 0 00-.728 5.98c0 1.49.121 2.808.364 3.952.277 1.144.659 1.924 1.144 2.34.277.243.693.364 1.248.364.693 0 1.543-.173 2.548-.52 1.04-.347 2.305-.85 3.796-1.508a14.863 14.863 0 002.236-1.092c.728-.416 1.265-.797 1.612-1.144.901-.659 1.63-.988 2.184-.988.381-.139.641-.208.78-.208.07 0 .104.052.104.156a.72.72 0 01.052.312c0 .485-.26 1.023-.78 1.612-.52.555-1.213 1.092-2.08 1.612a7.208 7.208 0 01-2.496 1.612c-1.11.797-2.41 1.508-3.9 2.132-1.456.624-2.79.936-4.004.936a6.58 6.58 0 01-1.04-.104zm22.187-3.692c-.416 0-.745-.07-.988-.208-.242-.139-.589-.399-1.04-.78-1.144-1.213-1.716-2.323-1.716-3.328 0-.243.018-.416.052-.52.104-.243.139-.485.104-.728v-.468c-.138-.139-.208-.225-.208-.26 0-.07.035-.121.104-.156a.812.812 0 00.156-.208c.208 0 .278-.19.208-.572-.069-.277.07-.884.416-1.82a12.6 12.6 0 011.3-2.652c.382-.624.936-1.404 1.664-2.34.763-.936 1.439-1.647 2.028-2.132.832-.728 1.578-1.265 2.236-1.612a8.575 8.575 0 012.184-.78c.694-.173 1.162-.26 1.404-.26a.97.97 0 01.624.208c.208.104.468.312.78.624.936.416 1.578.953 1.924 1.612.382.624.572 1.612.572 2.964 0 2.253-.918 4.697-2.756 7.332-.797 1.144-1.542 2.028-2.236 2.652-.693.59-1.612 1.23-2.756 1.924-.728.52-1.404.901-2.028 1.144-.589.208-1.265.33-2.028.364zm4.992-5.512c.832-.936 1.491-1.82 1.976-2.652.52-.832 1.006-1.89 1.456-3.172.174-.59.26-1.3.26-2.132 0-1.04-.138-1.63-.416-1.768a2.308 2.308 0 00-1.04-.26c-.762 0-1.56.347-2.392 1.04-1.005.867-1.906 1.941-2.704 3.224-.797 1.248-1.612 2.808-2.444 4.68-.346.728-.52 1.439-.52 2.132 0 .52.122.936.364 1.248.278.312.642.468 1.092.468 1.144 0 2.6-.936 4.368-2.808zm15.212 4.316c-.52.104-.901.156-1.144.156-.208 0-.381-.035-.52-.104a5.925 5.925 0 01-.572-.52 4.555 4.555 0 01-1.82-1.612c-.416-.728-.589-1.37-.52-1.924.139-1.595.59-3.345 1.352-5.252.798-1.907 1.734-3.588 2.808-5.044 1.075-1.456 2.115-2.357 3.12-2.704.624-.243 1.144-.364 1.56-.364.832 0 1.422.347 1.768 1.04.243.485.364.85.364 1.092 0 .416-.242.693-.728.832-.104 0-.225.052-.364.156-.138.104-.208.208-.208.312.035.035.191.052.468.052.59 0 1.318-.087 2.184-.26.867-.173 1.422-.364 1.664-.572.208-.104.382-.156.52-.156l.728.104c.59.173.884.381.884.624 0 .139.052.277.156.416a.499.499 0 00.364.156c.208.035.174.173-.104.416-.242.243-.728.641-1.456 1.196l-.78.468c-.312.208-.502.381-.572.52-.034.139-.017.33.052.572.139.312.208.693.208 1.144 0 1.144-.502 2.41-1.508 3.796-.97 1.387-2.201 2.6-3.692 3.64-1.456 1.04-2.86 1.647-4.212 1.82zm-.884-2.288c.208 0 .728-.208 1.56-.624.451-.45.815-.728 1.092-.832.243 0 .572-.173.988-.52.416-.381 1.058-1.127 1.924-2.236.659-.763 1.144-1.404 1.456-1.924.347-.52.52-1.023.52-1.508a1.58 1.58 0 00-.052-.468c-.034-.104-.156-.19-.364-.26a3.64 3.64 0 00-.52-.26 1.95 1.95 0 01-.884-.208c-.242-.173-.606-.45-1.092-.832l-.832-1.04-.884.884c-.832.832-1.681 2.201-2.548 4.108-.866 1.872-1.352 3.328-1.456 4.368-.034.485.035.832.208 1.04.208.173.503.277.884.312zM62.951 36c-.104.035-.277.052-.52.052-.554 0-.988-.277-1.3-.832-.312-.555-.468-1.317-.468-2.288 0-.797.104-1.716.312-2.756.382-1.005.572-1.733.572-2.184.104-.659.451-1.837 1.04-3.536.624-1.733 1.023-2.773 1.196-3.12.14 0 .26-.104.364-.312a1.96 1.96 0 00.156-.78c0-.312.052-.624.156-.936.14-.347.278-.59.416-.728 0-.104.035-.295.104-.572.104-.277.156-.468.156-.572 0-.07.035-.19.104-.364.104-.208.156-.364.156-.468.555-1.075 1.526-3.484 2.912-7.228 1.387-3.779 2.08-5.876 2.08-6.292 0-.555.278-.832.832-.832.174-.173.451-.26.832-.26l.832.832c.243.243.4.503.468.78.07.243.104.624.104 1.144 0 .52-.069.97-.208 1.352-.138.381-.485 1.161-1.04 2.34a17.12 17.12 0 01-.416.884c-.173.312-.364.71-.572 1.196-.069.173-.346.797-.832 1.872-.346.693-.52 1.092-.52 1.196 0 .104-.069.33-.208.676a8.3 8.3 0 00-.364.988c-.277.555-.728 1.543-1.352 2.964-.589 1.387-.884 2.15-.884 2.288 0 .381-.086.659-.26.832-.104 0-.173.087-.208.26a1.42 1.42 0 00-.052.312c0 .347-.277 1.265-.832 2.756l-.468 1.508c-.658 2.253-1.126 3.9-1.404 4.94-.242 1.04-.364 1.924-.364 2.652 0 .867-.034 1.421-.104 1.664-.034.243-.173.433-.416.572zm29.127 1.404c-.138.139-.277.208-.416.208-.173 0-.468-.104-.884-.312-.45-.104-.78-.243-.988-.416-.208-.139-.312-.364-.312-.676 0-.347.122-.78.364-1.3.312-.59 1.11-3.484 2.392-8.684l.884-3.432c0-.035.07-.572.208-1.612.104-.52.26-1.473.468-2.86a8.164 8.164 0 00.832-2.6c.174-.97.278-1.525.312-1.664.243-.936.416-1.543.52-1.82l.468-1.82.312-1.196c.243-.867.364-1.421.364-1.664v-.832h-1.924l-.988.052-1.976-.052a30.27 30.27 0 00-2.028-.052c-1.629-.07-2.721-.225-3.276-.468-.554-.277-.849-.797-.884-1.56-.104-.485.035-.797.416-.936.382-.173 1.266-.26 2.652-.26 1.214 0 2.236.017 3.068.052a31.32 31.32 0 012.08-.052c.971 0 1.768.017 2.392.052.659.035 1.04.052 1.144.052a1.22 1.22 0 00.26-.416c.07-.173.122-.312.156-.416 0-.59.191-.953.572-1.092.208-.45.468-.676.78-.676.416 0 .85.33 1.3.988.07.173.174.485.312.936.174.416.382.745.624.988.139-.139.59-.225 1.352-.26.763-.035 1.3-.07 1.612-.104.659 0 1.335-.017 2.028-.052.694-.07 1.162-.104 1.404-.104.312-.173.798-.26 1.456-.26.312 0 .746.035 1.3.104.798 0 1.352.035 1.664.104.347.07.572.19.676.364 0 .381.087.659.26.832.139.104.208.208.208.312 0 .07-.069.225-.208.468-.242.312-.866.468-1.872.468l-1.092.052c-.762.07-1.317.104-1.664.104-1.386.277-3.38.468-5.98.572-1.421 0-2.132.139-2.132.416-.208 0-.606 1.127-1.196 3.38a26.116 26.116 0 01-.676 2.288c-.208.659-.381 1.11-.52 1.352a.76.76 0 01.156.468c0 .173-.104.555-.312 1.144a14.41 14.41 0 01-.364 1.144c-.138.347-.208.624-.208.832-.034.139-.138.485-.312 1.04-.138.52-.26 1.11-.364 1.768-.173 1.664-.398 2.635-.676 2.912-.034.07-.121.208-.26.416a1.49 1.49 0 00-.156.676c0 .485-.121 1.352-.364 2.6-.242 1.213-.433 1.872-.572 1.976.104 0 .156.104.156.312 0 .243-.104.607-.312 1.092 0 .277-.052.607-.156.988-.104.381-.156.641-.156.78l-.52 1.56c-.797 2.392-1.265 3.657-1.404 3.796zm14.987-3.016c-.208 0-.503-.07-.884-.208-.381-.139-.624-.26-.728-.364-.347-.347-.52-.745-.52-1.196 0-.763.381-1.681 1.144-2.756.208-.416.728-1.855 1.56-4.316l1.04-2.86c.069-.59.035-1.005-.104-1.248-.139-.277-.433-.433-.884-.468h-.312c-.312 0-.52-.052-.624-.156-.104-.139-.156-.468-.156-.988.035-.416.139-.728.312-.936.173-.208.468-.45.884-.728a3.796 3.796 0 011.716-.416c.555 0 .971.121 1.248.364.208.139.347.45.416.936.104.45.156.936.156 1.456.035.485.069.832.104 1.04.173-.173.589-.52 1.248-1.04a21.581 21.581 0 001.768-1.56 15.616 15.616 0 012.028-1.196c.763-.381 1.3-.572 1.612-.572.381 0 .763.104 1.144.312.381.173.641.399.78.676.312.555.468 1.057.468 1.508 0 .485-.191.97-.572 1.456a3.089 3.089 0 01-1.196.884c-.485.208-.832.312-1.04.312-.208 0-.468-.156-.78-.468-.312-.312-.485-.572-.52-.78 0-.139-.451.139-1.352.832-.867.659-1.543 1.23-2.028 1.716-.555.659-1.127 1.525-1.716 2.6a879.488 879.488 0 00-2.496 4.888c-.104.243-.347.832-.728 1.768-.173.555-.329.953-.468 1.196-.139.208-.312.312-.52.312zm24.302-20.644c-.659 0-1.335-.347-2.028-1.04-.659-.728-.988-1.473-.988-2.236 0-.173.208-.572.624-1.196.416-.624.624-.97.624-1.04.243 0 .451.017.624.052.173.035.381.104.624.208.312.693.797 1.404 1.456 2.132.208.277.399.537.572.78.173.243.26.45.26.624 0 .59-.035.988-.104 1.196-.035.208-.173.347-.416.416-.208.07-.624.104-1.248.104zm-7.644 19.708c-.104 0-.243-.035-.416-.104a5.462 5.462 0 01-.364-.156c0-.104-.052-.277-.156-.52-.069-.277-.104-.45-.104-.52-.277-.139-.416-.312-.416-.52 0-.173.052-.416.156-.728.451-.797 1.248-2.6 2.392-5.408 1.144-2.843 1.785-4.524 1.924-5.044 0-.139.052-.312.156-.52.104-.208.225-.381.364-.52a.648.648 0 01.468-.208c.381 0 .728.26 1.04.78.347.52.52 1.092.52 1.716 0 .416-.399 1.612-1.196 3.588a78.139 78.139 0 01-2.6 5.876 58.71 58.71 0 01-.624 1.196c-.243.52-.433.832-.572.936-.139.104-.329.156-.572.156zm6.423 14.144c-.381-.139-.762-.45-1.144-.936-.381-.45-.572-.832-.572-1.144 0-.52.347-2.236 1.04-5.148.694-2.877 1.37-5.217 2.028-7.02.035-.139.26-.71.676-1.716.416-1.005.815-2.219 1.196-3.64.278-1.005 1.006-2.964 2.184-5.876l1.508-3.744 1.196-3.276c.104-.277.278-.52.52-.728.278-.243.52-.399.728-.468.07-.035.191-.052.364-.052.486 0 .902.277 1.248.832.104.208.156.416.156.624 0 .347-.208 1.023-.624 2.028l-.364 1.04 1.872-.416c.486 0 .884.017 1.196.052 1.248 0 2.028.035 2.34.104.763.035 1.3.173 1.612.416.347.243.676.624.988 1.144.624.59.971 1.11 1.04 1.56.07.416.104.745.104.988 0 1.11-.329 2.253-.988 3.432-.658 1.144-1.438 2.01-2.34 2.6a7.226 7.226 0 00-.884.416 11.92 11.92 0 01-.468.26c-.069.277-.866.728-2.392 1.352-1.49.59-2.721.953-3.692 1.092a6.14 6.14 0 01-1.196.104c-.381 0-.676-.052-.884-.156-.416-.07-.693-.104-.832-.104-.104 0-.156.07-.156.208-.866 2.565-1.577 4.905-2.132 7.02-1.213 3.675-2.028 6.067-2.444 7.176-.416 1.144-.71 1.803-.884 1.976zm6.5-19.188c.035.139.226.208.572.208.728 0 1.838-.33 3.328-.988 1.526-.693 2.722-1.404 3.588-2.132.728-.867 1.283-1.577 1.664-2.132.416-.59.624-1.04.624-1.352 0-.139-.069-.277-.208-.416-.346-.52-.97-.78-1.872-.78-1.144 0-2.513.433-4.108 1.3-.693.243-1.196.572-1.508.988-.277.381-.537.867-.78 1.456a52.15 52.15 0 01-.572 1.352c-.554 1.317-.797 2.15-.728 2.496z" fill="#fff"/></svg>